<?xml version="1.0" encoding="UTF-8"?>
<svg xmlns="http://www.w3.org/2000/svg" xmlns:xlink="http://www.w3.org/1999/xlink" width="363.22pt" height="332.26pt" viewBox="0 0 363.22 332.26" version="1.1">
<defs>
<clipPath id="clip1">
  <path d="M 0 275 L 363.21875 275 L 363.21875 332.261719 L 0 332.261719 Z M 0 275 "/>
</clipPath>
</defs>
<g id="surface1">
<path style=" stroke:none;fill-rule:evenodd;fill:rgb(66.299438%,1.998901%,19.999695%);fill-opacity:1;" d="M 185.636719 0 L 185.636719 256.117188 L 250.515625 128.359375 L 185.636719 0 M 178.714844 256.117188 L 139.449219 178.335938 L 178.714844 100.839844 L 178.714844 256.117188 "/>
<g clip-path="url(#clip1)" clip-rule="nonzero">
<path style=" stroke:none;fill-rule:nonzero;fill:rgb(13.699341%,12.199402%,12.5%);fill-opacity:1;" d="M 114.976563 310.78125 L 90.207031 310.78125 L 102.460938 292.546875 Z M 102.472656 275.8125 L 66.753906 329.058594 L 77.976563 329.058594 L 84.183594 319.777344 L 121.1875 319.777344 L 127.558594 329.058594 L 139.171875 329.058594 L 102.472656 275.8125 M 273.609375 310.78125 L 248.839844 310.78125 L 261.097656 292.546875 Z M 261.105469 275.8125 L 225.394531 329.058594 L 236.613281 329.058594 L 242.824219 319.777344 L 279.816406 319.777344 L 286.1875 329.058594 L 297.808594 329.058594 L 261.105469 275.8125 M 329.582031 299.960938 L 363.214844 299.960938 L 363.214844 321.3125 L 362.761719 321.695313 C 356.347656 327.191406 346.855469 329.980469 334.542969 329.980469 C 313.140625 329.980469 300.363281 320.269531 300.363281 304 C 300.363281 287.832031 313.457031 277.800781 334.542969 277.800781 C 346.582031 277.800781 354.777344 280.078125 361.121094 285.214844 L 362.113281 286.007813 L 356.28125 293.320313 L 355.277344 292.46875 C 351.0625 288.921875 345.902344 286.566406 334.394531 286.566406 C 319.003906 286.566406 311.203125 292.375 311.203125 303.847656 C 311.203125 315.527344 318.785156 321.214844 334.394531 321.214844 C 342.667969 321.214844 348.863281 319.777344 353.359375 316.863281 L 353.359375 309.042969 L 329.582031 309.042969 L 329.582031 299.960938 M 219.394531 278.636719 L 230.375 278.636719 L 204.226563 332.261719 L 182.25 294.605469 L 161.039063 332.261719 L 134.140625 278.636719 L 145.4375 278.636719 L 162.195313 312.378906 L 182.25 276.039063 L 203.292969 312.378906 L 219.394531 278.636719 M 10.457031 287.714844 L 33.414063 287.714844 C 44.21875 287.714844 47.015625 288.839844 47.015625 293.1875 C 47.015625 297.730469 43.972656 299.039063 33.414063 299.039063 L 10.457031 299.039063 Z M 33.113281 319.980469 L 10.457031 319.980469 L 10.457031 307.808594 L 33.113281 307.808594 C 47.703125 307.808594 50.167969 309.3125 50.167969 313.820313 C 50.167969 318.820313 46.984375 319.980469 33.113281 319.980469 Z M 52.140625 302.503906 C 55.710938 300.5 57.472656 297.28125 57.472656 292.730469 C 57.472656 280.339844 46.207031 278.636719 34.03125 278.636719 L 0 278.636719 L 0 329.058594 L 34.03125 329.058594 C 47.527344 329.058594 60.703125 327.910156 60.703125 314.203125 C 60.703125 308.417969 57.730469 304.453125 52.140625 302.503906 "/>
</g>
</g>
</svg>